<svg xmlns="http://www.w3.org/2000/svg" width="91" height="130" viewBox="0 0 91 130">
  <g id="Group_90" data-name="Group 90" transform="translate(-222 -4413)">
    <ellipse id="Ellipse_21" data-name="Ellipse 21" cx="9.5" cy="12.5" rx="9.5" ry="12.5" transform="translate(222 4413)" fill="#00aaf0"/>
    <ellipse id="Ellipse_26" data-name="Ellipse 26" cx="9.5" cy="12.5" rx="9.5" ry="12.5" transform="translate(222 4448)" fill="#00aaf0"/>
    <ellipse id="Ellipse_29" data-name="Ellipse 29" cx="9.5" cy="12.5" rx="9.5" ry="12.5" transform="translate(222 4483)" fill="#00aaf0"/>
    <ellipse id="Ellipse_32" data-name="Ellipse 32" cx="9.5" cy="12.5" rx="9.5" ry="12.5" transform="translate(222 4518)" fill="#00aaf0"/>
    <ellipse id="Ellipse_22" data-name="Ellipse 22" cx="9.5" cy="12.5" rx="9.5" ry="12.5" transform="translate(258 4413)" fill="#00aaf0"/>
    <ellipse id="Ellipse_25" data-name="Ellipse 25" cx="9.5" cy="12.5" rx="9.5" ry="12.5" transform="translate(258 4448)" fill="#00aaf0"/>
    <ellipse id="Ellipse_28" data-name="Ellipse 28" cx="9.5" cy="12.5" rx="9.5" ry="12.5" transform="translate(258 4483)" fill="#00aaf0"/>
    <ellipse id="Ellipse_31" data-name="Ellipse 31" cx="9.5" cy="12.5" rx="9.5" ry="12.5" transform="translate(258 4518)" fill="#00aaf0"/>
    <ellipse id="Ellipse_23" data-name="Ellipse 23" cx="10" cy="12.5" rx="10" ry="12.5" transform="translate(293 4413)" fill="#00aaf0"/>
    <ellipse id="Ellipse_24" data-name="Ellipse 24" cx="10" cy="12.5" rx="10" ry="12.5" transform="translate(293 4448)" fill="#00aaf0"/>
    <ellipse id="Ellipse_27" data-name="Ellipse 27" cx="10" cy="12.5" rx="10" ry="12.5" transform="translate(293 4483)" fill="#00aaf0"/>
    <ellipse id="Ellipse_30" data-name="Ellipse 30" cx="10" cy="12.5" rx="10" ry="12.5" transform="translate(293 4518)" fill="#00aaf0"/>
  </g>
</svg>
